<svg width="74" height="72" viewBox="0 0 74 72" fill="none" xmlns="http://www.w3.org/2000/svg">
<path d="M36.8191 28.9399C40.5076 28.9399 43.4976 31.9338 43.4976 35.6223C43.4976 39.3108 40.5076 42.3046 36.8191 42.3046C33.1268 42.3046 30.1367 39.3108 30.1367 35.6223C30.1367 31.9338 33.1268 28.9399 36.8191 28.9399Z" fill="#E7E9F1"/>
<path d="M36.8166 22.0387C45.7869 22.0387 54.119 23.3261 60.4012 25.4894C67.9745 28.0943 72.6295 32.0433 72.6295 35.6224C72.6295 39.3486 67.6951 43.5468 59.5668 46.2424C53.4168 48.2773 45.33 49.3419 36.8166 49.3419C28.0843 49.3419 19.8163 48.3415 13.6021 46.2197C5.73805 43.5317 1 39.2807 1 35.6224C1 32.0735 5.44735 28.1547 12.9112 25.5498C19.216 23.3525 27.7558 22.0387 36.8166 22.0387Z" stroke="#E7E9F1" stroke-width="1.89078"/>
<path d="M24.987 28.8683C29.4683 21.0987 34.7462 14.522 39.7599 10.1577C45.8004 4.90245 51.5465 2.84489 54.6461 4.63063C57.8778 6.49565 59.0481 12.8646 57.319 21.2534C56.0127 27.596 52.8943 35.1316 48.6395 42.5086C44.279 50.0706 39.2842 56.7341 34.3385 61.0568C28.0828 66.5273 22.0309 68.5056 18.8634 66.6821C15.7903 64.9077 14.6161 59.0974 16.0885 51.3316C17.3344 44.77 20.4604 36.7172 24.987 28.8683Z" stroke="#E7E9F1" stroke-width="1.89078"/>
<path d="M24.999 42.5275C20.5063 34.7654 17.4445 26.9089 16.1685 20.3851C14.6319 12.5287 15.7154 6.5221 18.815 4.72882C22.0391 2.86002 28.1438 5.02707 34.5468 10.7127C39.3906 15.0128 44.3627 21.48 48.6288 28.8495C53.0044 36.4039 56.2814 44.0603 57.5575 50.5048C59.1696 58.6558 57.8633 64.8851 54.6996 66.7161C51.6302 68.4943 46.0087 66.6142 40.0173 61.4571C34.9546 57.1003 29.5369 50.3689 24.999 42.5275Z" stroke="#E7E9F1" stroke-width="1.89078"/>
</svg>
